<svg xmlns="http://www.w3.org/2000/svg" viewBox="0 0 302.34 285.61"><defs><style>.cls-1{fill:#d4edfc;}.cls-2{fill:#0bbbef;}.cls-3{fill:#bce4fa;}.cls-4{fill:#83d0f5;}.cls-5{fill:#009fe3;}.cls-11,.cls-6,.cls-7,.cls-9{fill:none;}.cls-6,.cls-7,.cls-9{stroke:#fff;}.cls-6{stroke-width:2px;}.cls-7{stroke-width:2px;}.cls-8{fill:#a1daf8;}.cls-9{stroke-width:2px;}.cls-10{fill:#fff;}.cls-11{stroke:#83d0f5;stroke-linecap:round;stroke-width:6px;}</style></defs><title>daan-burger</title><g id="Layer_2" data-name="Layer 2"><g id="Layer_1-2" data-name="Layer 1"><polygon class="cls-1" points="276.52 205.3 268.73 211.79 259.08 208.69 262.85 218.1 256.91 226.32 267.03 225.64 273.02 233.83 275.5 224 285.13 220.84 276.55 215.44 276.52 205.3 276.52 205.3"/><polygon class="cls-2" points="270.91 177.85 266.63 181.42 261.32 179.71 263.39 184.89 260.13 189.41 265.69 189.04 268.99 193.54 270.35 188.14 275.65 186.4 270.93 183.43 270.91 177.85 270.91 177.85"/><polygon class="cls-3" points="299.11 231.21 296.18 233.64 292.56 232.48 293.98 236.01 291.75 239.1 295.54 238.84 297.79 241.92 298.72 238.22 302.34 237.04 299.12 235.01 299.11 231.21 299.11 231.21"/><polygon class="cls-4" points="69.33 59.44 66.32 64.5 60.74 64.57 64.28 69.11 62.53 74.78 67.73 72.53 72.23 75.97 71.9 70.04 76.43 66.49 71.03 65.08 69.33 59.44 69.33 59.44"/><polygon class="cls-2" points="34.63 156.38 29.98 163.78 21.24 163.8 26.84 170.51 24.16 178.84 32.28 175.59 39.36 180.7 38.78 171.98 45.84 166.82 37.36 164.68 34.63 156.38 34.63 156.38"/><path class="cls-5" d="M121.63,275.55V264.62q0-1.14,0-2t0-1.18l1.73-.13q.85-.06,2.22-.06a8.77,8.77,0,0,1,3.57.7,7.69,7.69,0,0,1,2.73,2,9.28,9.28,0,0,1,1.77,3.17,13.17,13.17,0,0,1,.63,4.21q0,5.92-2.5,8.84a8.48,8.48,0,0,1-6.79,2.92q-1.18,0-2,0l-1.37-.08q0-.26,0-1.18t0-2v-4.21Zm-5.62-.84q0,3.15-.08,5.6t-.23,4.8a11.94,11.94,0,0,1,1.4-.08h1.71q1.48,0,3.49,0t4.86,0a13.51,13.51,0,0,0,5.07-.95,12.31,12.31,0,0,0,4.18-2.75,13.1,13.1,0,0,0,2.85-4.35,14.87,14.87,0,0,0,1-5.69,14.67,14.67,0,0,0-1.06-6,9.21,9.21,0,0,0-3-3.78,12.23,12.23,0,0,0-4.61-2,27.74,27.74,0,0,0-5.94-.59q-2.51,0-4.06.09t-2.81.1q-.95,0-1.71-.06t-1.4-.13q.15,2.47.23,4.91t.08,5.6v5.16Zm36.57,7.44a2.5,2.5,0,0,1-2,.95,1.91,1.91,0,0,1-1.57-.74,3.38,3.38,0,0,1-.59-2.14,4.18,4.18,0,0,1,.47-2.2,3.54,3.54,0,0,1,1.21-1.2,8,8,0,0,1,1.63-.72,8.77,8.77,0,0,0,1.69-.74q0,.65,0,1.5t0,2.49a4.35,4.35,0,0,1-.78,2.81Zm-7.72-10.86h.27a2.84,2.84,0,0,1,.78-.78,8.24,8.24,0,0,1,1.14-.66,6.75,6.75,0,0,1,1.31-.47,5.46,5.46,0,0,1,1.33-.17,3.62,3.62,0,0,1,2.68,1,3.18,3.18,0,0,1,1,2.33,2.32,2.32,0,0,1-.13.84,1.37,1.37,0,0,1-.59.63,6.11,6.11,0,0,1-1.38.57q-.93.28-2.52.66a14.33,14.33,0,0,0-2.32.74,6.6,6.6,0,0,0-1.76,1.08,4.36,4.36,0,0,0-1.14,1.56,5.37,5.37,0,0,0-.4,2.16,5.54,5.54,0,0,0,.3,1.8,4.29,4.29,0,0,0,2.66,2.68,7.13,7.13,0,0,0,2.47.38,5.41,5.41,0,0,0,2.9-.72,7.17,7.17,0,0,0,2-1.94,4.2,4.2,0,0,0,1.33,2,3.59,3.59,0,0,0,2.28.68,5.66,5.66,0,0,0,1.63-.23q.76-.23,1.86-.68v-.91a5.86,5.86,0,0,1-1-.08,1.27,1.27,0,0,1-.7-.34,1.67,1.67,0,0,1-.4-.78,5.91,5.91,0,0,1-.13-1.42q0-2,.06-4.12t.06-4.5a7.11,7.11,0,0,0-.51-2.85,4.91,4.91,0,0,0-1.44-1.92,6,6,0,0,0-2.2-1.08,10.74,10.74,0,0,0-2.79-.34,10.46,10.46,0,0,0-3.66.68,12.17,12.17,0,0,0-3.44,2l.49,2.28Zm26.7,10.86a2.5,2.5,0,0,1-2,.95,1.91,1.91,0,0,1-1.57-.74,3.38,3.38,0,0,1-.59-2.14,4.18,4.18,0,0,1,.47-2.2,3.54,3.54,0,0,1,1.21-1.2,8,8,0,0,1,1.63-.72,8.77,8.77,0,0,0,1.69-.74q0,.65,0,1.5t0,2.49a4.35,4.35,0,0,1-.78,2.81Zm-7.72-10.86h.27a2.84,2.84,0,0,1,.78-.78,8.23,8.23,0,0,1,1.14-.66,6.75,6.75,0,0,1,1.31-.47,5.46,5.46,0,0,1,1.33-.17,3.62,3.62,0,0,1,2.68,1,3.18,3.18,0,0,1,1,2.33,2.32,2.32,0,0,1-.13.84,1.37,1.37,0,0,1-.59.63,6.11,6.11,0,0,1-1.39.57q-.93.28-2.52.66a14.33,14.33,0,0,0-2.32.74,6.6,6.6,0,0,0-1.76,1.08,4.36,4.36,0,0,0-1.14,1.56,5.37,5.37,0,0,0-.4,2.16,5.54,5.54,0,0,0,.3,1.8,4.29,4.29,0,0,0,2.66,2.68,7.13,7.13,0,0,0,2.47.38,5.41,5.41,0,0,0,2.9-.72,7.17,7.17,0,0,0,2-1.94,4.2,4.2,0,0,0,1.33,2,3.59,3.59,0,0,0,2.28.68,5.66,5.66,0,0,0,1.63-.23q.76-.23,1.86-.68v-.91a5.86,5.86,0,0,1-1-.08,1.27,1.27,0,0,1-.7-.34,1.67,1.67,0,0,1-.4-.78,5.91,5.91,0,0,1-.13-1.42q0-2,.06-4.12t.06-4.5a7.11,7.11,0,0,0-.51-2.85,4.91,4.91,0,0,0-1.44-1.92,6,6,0,0,0-2.2-1.08,10.74,10.74,0,0,0-2.79-.34,10.46,10.46,0,0,0-3.66.68,12.17,12.17,0,0,0-3.44,2l.49,2.28Zm23.61-1.59.15-2.85-1.42.13q-.66.06-1.35.06t-1.35-.06l-1.35-.13q.19,2,.25,4.08t.06,4.35v1.52q0,2.32-.06,4.36t-.25,3.95a8.9,8.9,0,0,1,1.25-.08h3.21a8.26,8.26,0,0,1,1.23.08q-.19-1.9-.25-3.95t-.06-4.36v-1.52a8.73,8.73,0,0,1,.8-4.1,2.89,2.89,0,0,1,4.8-.36,6,6,0,0,1,.82,3.51q0,3.45-.08,6.13a45.22,45.22,0,0,1-.34,4.65,8.41,8.41,0,0,1,1.25-.08H198a8.43,8.43,0,0,1,1.25.08q-.08-1.33-.13-2.75t-.06-2.64q0-1.48.08-3t.08-3.42q0-3.68-1.54-5.33a5.7,5.7,0,0,0-4.38-1.65,6.08,6.08,0,0,0-3.24.87,8.1,8.1,0,0,0-2.49,2.47Z"/><polygon class="cls-6" points="47.63 7.68 35.23 18.03 19.85 13.09 25.86 28.08 16.4 41.18 32.52 40.1 42.05 53.14 46.01 37.48 61.35 32.44 47.68 23.84 47.63 7.68 47.63 7.68"/><polygon class="cls-3" points="101.11 23.49 94.86 33.44 83.11 33.47 90.64 42.49 87.04 53.68 97.94 49.31 107.47 56.19 106.68 44.47 116.17 37.53 104.78 34.66 101.11 23.49 101.11 23.49"/><polygon class="cls-7" points="269.79 54.11 266.63 63.75 256.8 66.23 264.98 72.22 264.31 82.33 272.53 76.4 281.94 80.17 278.83 70.51 285.33 62.73 275.19 62.7 269.79 54.11 269.79 54.11"/><polygon class="cls-8" points="236.26 0 236.06 10.14 227.38 15.39 236.96 18.72 239.27 28.59 245.4 20.51 255.5 21.36 249.71 13.04 253.65 3.69 243.94 6.63 236.26 0 236.26 0"/><polygon class="cls-2" points="279.79 14.3 277.2 21.74 269.53 23.53 275.81 28.3 275.14 36.15 281.61 31.65 288.88 34.7 286.59 27.16 291.75 21.2 283.87 21.04 279.79 14.3 279.79 14.3"/><polygon class="cls-1" points="53.15 231.21 45.36 237.7 35.7 234.6 39.48 244.01 33.54 252.23 43.66 251.55 49.64 259.74 52.12 249.91 61.76 246.75 53.17 241.35 53.15 231.21 53.15 231.21"/><polygon class="cls-9" points="14.23 196.4 11.92 206.27 2.34 209.6 11.02 214.85 11.22 224.99 18.9 218.36 28.6 221.3 24.67 211.95 30.46 203.63 20.36 204.48 14.23 196.4 14.23 196.4"/><path class="cls-10" d="M161.16,15.89s-4.18-8.79-8.36,0L122.11,80.44s-4.18,8.79-13.84,10l-71.8,8.92s-9.66,1.2-2.52,7.82L86.65,156s7.14,6.62,5.29,16.17l-13.56,70s-1.85,9.56,6.7,4.9l63.35-34.46s8.55-4.65,17.1,0l63.35,34.46s8.55,4.65,6.7-4.9l-13.56-70s-1.85-9.56,5.29-16.17L280,107.16s7.14-6.62-2.52-7.82l-71.8-8.92s-9.66-1.2-13.84-10L161.16,15.89Z"/><path class="cls-11" d="M161.16,15.89s-4.18-8.79-8.36,0L122.11,80.44s-4.18,8.79-13.84,10l-71.8,8.92s-9.66,1.2-2.52,7.82L86.65,156s7.14,6.62,5.29,16.17l-13.56,70s-1.85,9.56,6.7,4.9l63.35-34.46s8.55-4.65,17.1,0l63.35,34.46s8.55,4.65,6.7-4.9l-13.56-70s-1.85-9.56,5.29-16.17L280,107.16s7.14-6.62-2.52-7.82l-71.8-8.92s-9.66-1.2-13.84-10L161.16,15.89Z"/></g></g></svg>